Comme-200.ufo
<glyph name="quotedbl" format="1">
  <advance width="663"/>
  <unicode hex="0022"/>
  <outline>
    <contour>
      <point x="175" y="1016" type="line"/>
      <point x="222" y="1016" type="line"/>
      <point x="288" y="1526" type="line"/>
      <point x="155" y="1526" type="line"/>
    </contour>
    <contour>
      <point x="414" y="1016" type="line"/>
      <point x="462" y="1016" type="line"/>
      <point x="524" y="1526" type="line"/>
      <point x="394" y="1526" type="line"/>
    </contour>
  </outline>
</glyph>
<glyph name="numbersign" format="1">
  <advance width="1171"/>
  <unicode hex="0023"/>
  <outline>
    <contour>
      <point x="216" y="-8" type="line"/>
      <point x="309" y="-8" type="line"/>
      <point x="399" y="438" type="line"/>
      <point x="673" y="438" type="line"/>
      <point x="585" y="-8" type="line"/>
      <point x="677" y="-8" type="line"/>
      <point x="767" y="438" type="line"/>
      <point x="948" y="438" type="line"/>
      <point x="961" y="514" type="line"/>
      <point x="782" y="514" type="line"/>
      <point x="876" y="975" type="line"/>
      <point x="1039" y="975" type="line"/>
      <point x="1053" y="1050" type="line"/>
      <point x="891" y="1050" type="line"/>
      <point x="983" y="1495" type="line"/>
      <point x="892" y="1495" type="line"/>
      <point x="798" y="1050" type="line"/>
      <point x="524" y="1050" type="line"/>
      <point x="616" y="1495" type="line"/>
      <point x="522" y="1495" type="line"/>
      <point x="430" y="1050" type="line"/>
      <point x="269" y="1050" type="line"/>
      <point x="259" y="975" type="line"/>
      <point x="414" y="975" type="line"/>
      <point x="321" y="514" type="line"/>
      <point x="171" y="514" type="line"/>
      <point x="160" y="438" type="line"/>
      <point x="306" y="438" type="line"/>
    </contour>
    <contour>
      <point x="414" y="514" type="line"/>
      <point x="508" y="975" type="line"/>
      <point x="782" y="975" type="line"/>
      <point x="689" y="514" type="line"/>
    </contour>
  </outline>
</glyph>
<glyph name="zero" format="1">
  <advance width="1240"/>
  <unicode hex="0030"/>
  <outline>
    <contour>
      <point x="624" y="83" type="curve" smooth="yes"/>
      <point x="418" y="83"/>
      <point x="261" y="233"/>
      <point x="261" y="719" type="curve"/>
      <point x="259" y="1179"/>
      <point x="417" y="1372"/>
      <point x="624" y="1372" type="curve" smooth="yes"/>
      <point x="829" y="1372"/>
      <point x="973" y="1220"/>
      <point x="973" y="722" type="curve" smooth="yes"/>
      <point x="973" y="235"/>
      <point x="829" y="83"/>
    </contour>
    <contour>
      <point x="624" y="-20" type="curve" smooth="yes"/>
      <point x="947" y="-20"/>
      <point x="1090" y="253"/>
      <point x="1090" y="717" type="curve" smooth="yes"/>
      <point x="1090" y="1211"/>
      <point x="925" y="1476"/>
      <point x="624" y="1476" type="curve" smooth="yes"/>
      <point x="320" y="1476"/>
      <point x="142" y="1209"/>
      <point x="142" y="717" type="curve" smooth="yes"/>
      <point x="142" y="253"/>
      <point x="299" y="-20"/>
    </contour>
  </outline>
</glyph>
<glyph name="four" format="1">
  <advance width="1217"/>
  <unicode hex="0034"/>
  <outline>
    <contour>
      <point x="813" y="0" type="line"/>
      <point x="926" y="0" type="line"/>
      <point x="926" y="396" type="line"/>
      <point x="1094" y="396" type="line"/>
      <point x="1104" y="491" type="line"/>
      <point x="926" y="491" type="line"/>
      <point x="925" y="1456" type="line"/>
      <point x="823" y="1456" type="line"/>
      <point x="133" y="515" type="line"/>
      <point x="153" y="396" type="line"/>
      <point x="813" y="396" type="line"/>
    </contour>
    <contour>
      <point x="255" y="493" type="line"/>
      <point x="811" y="1286" type="line"/>
      <point x="811" y="493" type="line"/>
    </contour>
  </outline>
</glyph>
<glyph name="six" format="1">
  <advance width="1217"/>
  <unicode hex="0036"/>
  <outline>
    <contour>
      <point x="634" y="-20" type="curve" smooth="yes"/>
      <point x="919" y="-20"/>
      <point x="1083" y="189"/>
      <point x="1083" y="431" type="curve" smooth="yes"/>
      <point x="1083" y="692"/>
      <point x="887" y="857"/>
      <point x="670" y="857" type="curve" smooth="yes"/>
      <point x="515" y="857"/>
      <point x="390" y="783"/>
      <point x="326" y="701" type="curve"/>
      <point x="334" y="695" type="line"/>
      <point x="507" y="950" type="line" smooth="yes"/>
      <point x="845" y="1437" type="line"/>
      <point x="845" y="1456" type="line"/>
      <point x="726" y="1456" type="line"/>
      <point x="417" y="1009" type="line" smooth="yes"/>
      <point x="271" y="798"/>
      <point x="186" y="661"/>
      <point x="186" y="434" type="curve" smooth="yes"/>
      <point x="186" y="211"/>
      <point x="332" y="-20"/>
    </contour>
    <contour>
      <point x="632" y="78" type="curve" smooth="yes"/>
      <point x="409" y="78"/>
      <point x="296" y="244"/>
      <point x="296" y="423" type="curve" smooth="yes"/>
      <point x="296" y="700"/>
      <point x="528" y="762"/>
      <point x="640" y="762" type="curve" smooth="yes"/>
      <point x="848" y="762"/>
      <point x="972" y="620"/>
      <point x="972" y="431" type="curve" smooth="yes"/>
      <point x="972" y="249"/>
      <point x="854" y="78"/>
    </contour>
  </outline>
</glyph>
<glyph name="semicolon" format="1">
  <advance width="553"/>
  <unicode hex="003B"/>
  <outline>
    <contour>
      <point x="155" y="-283" type="curve"/>
      <point x="220" y="-299" type="line"/>
      <point x="237" y="-277"/>
      <point x="356" y="87"/>
      <point x="356" y="166" type="curve"/>
      <point x="221" y="166" type="line"/>
      <point x="216" y="100"/>
      <point x="172" y="-217"/>
    </contour>
    <contour>
      <point x="286" y="865" type="curve" smooth="yes"/>
      <point x="357" y="865"/>
      <point x="377" y="916"/>
      <point x="377" y="961" type="curve" smooth="yes"/>
      <point x="377" y="1005"/>
      <point x="357" y="1056"/>
      <point x="286" y="1056" type="curve" smooth="yes"/>
      <point x="212" y="1056"/>
      <point x="192" y="1005"/>
      <point x="192" y="961" type="curve" smooth="yes"/>
      <point x="192" y="916"/>
      <point x="214" y="865"/>
    </contour>
  </outline>
</glyph>
<glyph name="A" format="1">
  <advance width="1323"/>
  <unicode hex="0041"/>
  <outline>
    <contour>
      <point x="660" y="1455" type="move" name="top"/>
    </contour>
    <contour>
      <point x="1204" y="0" type="move" name="ogonek"/>
    </contour>
    <contour>
      <point x="661" y="0" type="move" name="bot"/>
    </contour>
    <contour>
      <point x="610" y="1455" type="line"/>
      <point x="55" y="0" type="line"/>
      <point x="175" y="0" type="line"/>
      <point x="378" y="535" type="line"/>
      <point x="325" y="494" type="line"/>
      <point x="1010" y="494" type="line"/>
      <point x="954" y="532" type="line"/>
      <point x="1153" y="0" type="line"/>
      <point x="1268" y="0" type="line"/>
      <point x="711" y="1455" type="line"/>
    </contour>
    <contour>
      <point x="635" y="1384" type="line"/>
      <point x="950" y="546" type="line"/>
      <point x="986" y="584" type="line"/>
      <point x="352" y="584" type="line"/>
      <point x="382" y="549" type="line"/>
      <point x="685" y="1384" type="line"/>
    </contour>
  </outline>
</glyph>
<glyph name="H" format="1">
  <advance width="1507"/>
  <unicode hex="0048"/>
  <outline>
    <contour>
      <point x="759" y="1455" type="move" name="top"/>
    </contour>
    <contour>
      <point x="1169" y="1455" type="line"/>
      <point x="1169" y="762" type="line"/>
      <point x="1222" y="794" type="line"/>
      <point x="282" y="794" type="line"/>
      <point x="337" y="762" type="line"/>
      <point x="337" y="1455" type="line"/>
      <point x="215" y="1455" type="line"/>
      <point x="215" y="0" type="line"/>
      <point x="337" y="0" type="line"/>
      <point x="337" y="735" type="line"/>
      <point x="284" y="702" type="line"/>
      <point x="1223" y="702" type="line"/>
      <point x="1169" y="735" type="line"/>
      <point x="1169" y="0" type="line"/>
      <point x="1291" y="0" type="line"/>
      <point x="1291" y="1455" type="line"/>
    </contour>
  </outline>
</glyph>
<glyph name="K" format="1">
  <advance width="1264"/>
  <unicode hex="004B"/>
  <outline>
    <contour>
      <point x="643" y="1455" type="move" name="top"/>
    </contour>
    <contour>
      <point x="644" y="0" type="move" name="bot"/>
    </contour>
    <contour>
      <point x="1190" y="1456" type="line"/>
      <point x="1055" y="1456" type="line"/>
      <point x="295" y="689" type="line"/>
      <point x="338" y="682" type="line"/>
      <point x="338" y="1456" type="line"/>
      <point x="216" y="1456" type="line"/>
      <point x="216" y="0" type="line"/>
      <point x="338" y="0" type="line"/>
      <point x="338" y="655" type="line"/>
      <point x="301" y="581" type="line"/>
      <point x="512" y="789" type="line"/>
      <point x="459" y="783" type="line"/>
      <point x="1092" y="0" type="line"/>
      <point x="1229" y="0" type="line"/>
      <point x="1229" y="12" type="line"/>
      <point x="540" y="863" type="line"/>
      <point x="546" y="794" type="line"/>
      <point x="1190" y="1443" type="line"/>
    </contour>
  </outline>
</glyph>
<glyph name="Q" format="1">
  <advance width="1624"/>
  <unicode hex="0051"/>
  <outline>
    <contour>
      <point x="925" y="22" type="line"/>
      <point x="980" y="-89"/>
      <point x="1207" y="-377"/>
      <point x="1230" y="-409" type="curve"/>
      <point x="1302" y="-348" type="line"/>
      <point x="1259" y="-303"/>
      <point x="1049" y="-25"/>
      <point x="1017" y="46" type="curve"/>
    </contour>
    <component base="O"/>
  </outline>
</glyph>
<glyph name="bracketleft" format="1">
  <advance width="699"/>
  <unicode hex="005B"/>
  <outline>
    <contour>
      <point x="194" y="-310" type="line"/>
      <point x="633" y="-310" type="line"/>
      <point x="633" y="-223" type="line"/>
      <point x="306" y="-223" type="line"/>
      <point x="306" y="1364" type="line"/>
      <point x="633" y="1364" type="line"/>
      <point x="633" y="1453" type="line"/>
      <point x="194" y="1453" type="line"/>
    </contour>
  </outline>
</glyph>
<glyph name="bracketright" format="1">
  <advance width="758"/>
  <unicode hex="005D"/>
  <outline>
    <contour>
      <point x="126" y="-310" type="line"/>
      <point x="563" y="-310" type="line"/>
      <point x="563" y="1453" type="line"/>
      <point x="126" y="1453" type="line"/>
      <point x="126" y="1364" type="line"/>
      <point x="453" y="1364" type="line"/>
      <point x="453" y="-222" type="line"/>
      <point x="126" y="-222" type="line"/>
    </contour>
  </outline>
</glyph>
<glyph name="asciicircum" format="1">
  <advance width="1336"/>
  <unicode hex="005E"/>
  <outline>
    <contour>
      <point x="625" y="1493" type="line"/>
      <point x="170" y="454" type="line"/>
      <point x="270" y="454" type="line"/>
      <point x="661" y="1349" type="line"/>
      <point x="1058" y="454" type="line"/>
      <point x="1160" y="454" type="line"/>
      <point x="693" y="1493" type="line"/>
    </contour>
  </outline>
</glyph>
<glyph name="d" format="1">
  <advance width="1220"/>
  <unicode hex="0064"/>
  <outline>
    <contour>
      <point x="576" y="1082" type="move" name="top"/>
    </contour>
    <contour>
      <point x="1068" y="1134" type="move" name="caron.alt"/>
    </contour>
    <contour>
      <point x="989" y="1275" type="move" name="mid"/>
    </contour>
    <contour>
      <point x="924" y="1540" type="line"/>
      <point x="924" y="1170" type="line"/>
      <point x="934" y="836" type="line"/>
      <point x="974" y="840" type="line"/>
      <point x="936" y="997"/>
      <point x="800" y="1104"/>
      <point x="595" y="1102" type="curve" smooth="yes"/>
      <point x="300" y="1104"/>
      <point x="118" y="887"/>
      <point x="118" y="547" type="curve"/>
      <point x="118" y="202"/>
      <point x="292" y="-21"/>
      <point x="587" y="-20" type="curve" smooth="yes"/>
      <point x="759" y="-20"/>
      <point x="923" y="69"/>
      <point x="979" y="228" type="curve"/>
      <point x="934" y="222" type="line"/>
      <point x="948" y="0" type="line"/>
      <point x="1047" y="0" type="line"/>
      <point x="1047" y="1560" type="line"/>
    </contour>
    <contour>
      <point x="589" y="72" type="curve" smooth="yes"/>
      <point x="367" y="72"/>
      <point x="242" y="255"/>
      <point x="242" y="547" type="curve" smooth="yes"/>
      <point x="242" y="832"/>
      <point x="371" y="1012"/>
      <point x="597" y="1012" type="curve" smooth="yes"/>
      <point x="741" y="1012"/>
      <point x="864" y="944"/>
      <point x="927" y="807" type="curve"/>
      <point x="927" y="256" type="line"/>
      <point x="868" y="140"/>
      <point x="742" y="72"/>
    </contour>
  </outline>
</glyph>
<glyph name="e" format="1">
  <advance width="1122"/>
  <unicode hex="0065"/>
  <outline>
    <contour>
      <point x="592" y="1082" type="move" name="top"/>
    </contour>
    <contour>
      <point x="779" y="22" type="move" name="ogonek"/>
    </contour>
    <contour>
      <point x="609" y="0" type="move" name="bot"/>
    </contour>
    <contour>
      <point x="614" y="-20" type="curve" smooth="yes"/>
      <point x="764" y="-20"/>
      <point x="881" y="21"/>
      <point x="978" y="77" type="curve"/>
      <point x="943" y="160" type="line"/>
      <point x="931" y="160" type="line"/>
      <point x="835" y="107"/>
      <point x="743" y="74"/>
      <point x="629" y="74" type="curve" smooth="yes"/>
      <point x="410" y="74"/>
      <point x="237" y="224"/>
      <point x="237" y="571" type="curve"/>
      <point x="193" y="535" type="line"/>
      <point x="998" y="535" type="line"/>
      <point x="998" y="535"/>
      <point x="1003" y="575"/>
      <point x="1004" y="606" type="curve" smooth="yes"/>
      <point x="1007" y="916"/>
      <point x="859" y="1104"/>
      <point x="604" y="1104" type="curve" smooth="yes"/>
      <point x="346" y="1104"/>
      <point x="118" y="901"/>
      <point x="118" y="537" type="curve" smooth="yes"/>
      <point x="118" y="198"/>
      <point x="328" y="-20"/>
    </contour>
    <contour>
      <point x="242" y="616" type="line"/>
      <point x="264" y="850"/>
      <point x="400" y="1012"/>
      <point x="613" y="1011" type="curve" smooth="yes"/>
      <point x="812" y="1009"/>
      <point x="899" y="870"/>
      <point x="905" y="616" type="curve"/>
    </contour>
  </outline>
</glyph>
<glyph name="k" format="1">
  <advance width="1069"/>
  <unicode hex="006B"/>
  <outline>
    <contour>
      <point x="585" y="0" type="move" name="bot"/>
    </contour>
    <contour>
      <point x="181" y="0" type="line"/>
      <point x="301" y="0" type="line"/>
      <point x="301" y="431" type="line"/>
      <point x="272" y="370" type="line"/>
      <point x="466" y="540" type="line"/>
      <point x="410" y="544" type="line"/>
      <point x="897" y="0" type="line"/>
      <point x="1032" y="0" type="line"/>
      <point x="1032" y="12" type="line"/>
      <point x="490" y="605" type="line"/>
      <point x="488" y="552" type="line"/>
      <point x="1015" y="1069" type="line"/>
      <point x="1015" y="1082" type="line"/>
      <point x="881" y="1082" type="line"/>
      <point x="262" y="474" type="line"/>
      <point x="294" y="469" type="line"/>
      <point x="301" y="716" type="line"/>
      <point x="301" y="1560" type="line"/>
      <point x="181" y="1540" type="line"/>
    </contour>
  </outline>
</glyph>
<glyph name="l" format="1">
  <advance width="607"/>
  <unicode hex="006C"/>
  <outline>
    <contour>
      <point x="346" y="1472" type="move" name="top"/>
    </contour>
    <contour>
      <point x="261" y="810" type="move" name="mid"/>
    </contour>
    <contour>
      <point x="442" y="-9" type="curve" smooth="yes"/>
      <point x="479" y="-9"/>
      <point x="536" y="-7"/>
      <point x="551" y="-6" type="curve"/>
      <point x="556" y="82" type="line"/>
      <point x="549" y="80"/>
      <point x="496" y="80"/>
      <point x="464" y="80" type="curve" smooth="yes"/>
      <point x="335" y="83"/>
      <point x="306" y="131"/>
      <point x="306" y="269" type="curve" smooth="yes"/>
      <point x="306" y="1560" type="line"/>
      <point x="185" y="1540" type="line"/>
      <point x="185" y="267" type="line" smooth="yes"/>
      <point x="185" y="32"/>
      <point x="310" y="-9"/>
    </contour>
  </outline>
</glyph>
<glyph name="n" format="1">
  <advance width="1176"/>
  <unicode hex="006E"/>
  <outline>
    <contour>
      <point x="664" y="1064" type="move" name="top"/>
    </contour>
    <contour>
      <point x="591" y="0" type="move" name="bot"/>
    </contour>
    <contour>
      <point x="180" y="0" type="line"/>
      <point x="301" y="0" type="line"/>
      <point x="301" y="648" type="line" smooth="yes"/>
      <point x="301" y="828"/>
      <point x="378" y="1012"/>
      <point x="649" y="1012" type="curve" smooth="yes"/>
      <point x="835" y="1012"/>
      <point x="889" y="885"/>
      <point x="889" y="695" type="curve" smooth="yes"/>
      <point x="889" y="0" type="line"/>
      <point x="1009" y="0" type="line"/>
      <point x="1009" y="657" type="line" smooth="yes"/>
      <point x="1009" y="958"/>
      <point x="903" y="1104"/>
      <point x="661" y="1104" type="curve" smooth="yes"/>
      <point x="459" y="1104"/>
      <point x="337" y="1015"/>
      <point x="281" y="852" type="curve"/>
      <point x="298" y="849" type="line"/>
      <point x="280" y="1082" type="line"/>
      <point x="180" y="1082" type="line"/>
    </contour>
  </outline>
</glyph>
<glyph name="p" format="1">
  <advance width="1223"/>
  <unicode hex="0070"/>
  <outline>
    <contour>
      <point x="662" y="1064" type="move" name="top"/>
    </contour>
    <contour>
      <point x="180" y="-476" type="line"/>
      <point x="301" y="-472" type="line"/>
      <point x="301" y="-88" type="line"/>
      <point x="289" y="267" type="line"/>
      <point x="244" y="261" type="line"/>
      <point x="293" y="79"/>
      <point x="440" y="-20"/>
      <point x="641" y="-20" type="curve" smooth="yes"/>
      <point x="921" y="-20"/>
      <point x="1105" y="194"/>
      <point x="1105" y="538" type="curve" smooth="yes"/>
      <point x="1105" y="898"/>
      <point x="941" y="1104"/>
      <point x="657" y="1104" type="curve" smooth="yes"/>
      <point x="453" y="1104"/>
      <point x="326" y="982"/>
      <point x="278" y="799" type="curve"/>
      <point x="292" y="793" type="line"/>
      <point x="276" y="1082" type="line"/>
      <point x="180" y="1082" type="line"/>
    </contour>
    <contour>
      <point x="638" y="72" type="curve" smooth="yes"/>
      <point x="461" y="72"/>
      <point x="349" y="158"/>
      <point x="295" y="300" type="curve"/>
      <point x="295" y="557" type="line" smooth="yes"/>
      <point x="295" y="812"/>
      <point x="393" y="1012"/>
      <point x="649" y="1012" type="curve" smooth="yes"/>
      <point x="878" y="1012"/>
      <point x="982" y="836"/>
      <point x="982" y="539" type="curve" smooth="yes"/>
      <point x="982" y="248"/>
      <point x="864" y="72"/>
    </contour>
  </outline>
</glyph>
<glyph name="s" format="1">
  <advance width="946"/>
  <unicode hex="0073"/>
  <outline>
    <contour>
      <point x="499" y="1082" type="move" name="top"/>
    </contour>
    <contour>
      <point x="478" y="0" type="move" name="bot"/>
    </contour>
    <contour>
      <point x="180" y="165" type="line"/>
      <point x="129" y="95" type="line"/>
      <point x="227" y="17"/>
      <point x="361" y="-20"/>
      <point x="487" y="-20" type="curve" smooth="yes"/>
      <point x="686" y="-20"/>
      <point x="839" y="71"/>
      <point x="842" y="276" type="curve" smooth="yes"/>
      <point x="844" y="427"/>
      <point x="789" y="518"/>
      <point x="560" y="591" type="curve" smooth="yes"/>
      <point x="417" y="636" type="line" smooth="yes"/>
      <point x="281" y="680"/>
      <point x="236" y="735"/>
      <point x="236" y="829" type="curve" smooth="yes"/>
      <point x="236" y="953"/>
      <point x="349" y="1013"/>
      <point x="504" y="1011" type="curve" smooth="yes"/>
      <point x="599" y="1010"/>
      <point x="683" y="979"/>
      <point x="737" y="936" type="curve"/>
      <point x="747" y="936" type="line"/>
      <point x="798" y="1003" type="line"/>
      <point x="739" y="1058"/>
      <point x="627" y="1104"/>
      <point x="496" y="1104" type="curve" smooth="yes"/>
      <point x="274" y="1104"/>
      <point x="124" y="1004"/>
      <point x="124" y="828" type="curve" smooth="yes"/>
      <point x="124" y="693"/>
      <point x="182" y="607"/>
      <point x="389" y="542" type="curve" smooth="yes"/>
      <point x="533" y="498" type="line" smooth="yes"/>
      <point x="702" y="445"/>
      <point x="738" y="387"/>
      <point x="736" y="272" type="curve" smooth="yes"/>
      <point x="733" y="137"/>
      <point x="653" y="72"/>
      <point x="487" y="72" type="curve" smooth="yes"/>
      <point x="386" y="72"/>
      <point x="277" y="98"/>
      <point x="194" y="165" type="curve"/>
    </contour>
  </outline>
</glyph>
<glyph name="z" format="1">
  <advance width="939"/>
  <unicode hex="007A"/>
  <outline>
    <contour>
      <point x="489" y="1082" type="move" name="top"/>
    </contour>
    <contour>
      <point x="457" y="0" type="move" name="bot"/>
    </contour>
    <contour>
      <point x="136" y="1082" type="line"/>
      <point x="139" y="997" type="line"/>
      <point x="752" y="997" type="line"/>
      <point x="735" y="1039" type="line"/>
      <point x="115" y="83" type="line"/>
      <point x="115" y="0" type="line"/>
      <point x="827" y="0" type="line"/>
      <point x="824" y="86" type="line"/>
      <point x="177" y="86" type="line"/>
      <point x="201" y="41" type="line"/>
      <point x="821" y="998" type="line"/>
      <point x="821" y="1082" type="line"/>
    </contour>
  </outline>
</glyph>
<glyph name="braceleft" format="1">
  <advance width="837"/>
  <unicode hex="007B"/>
  <outline>
    <contour>
      <point x="661" y="-274" type="curve"/>
      <point x="661" y="-193" type="line"/>
      <point x="509" y="-191"/>
      <point x="470" y="-126"/>
      <point x="470" y="76" type="curve" smooth="yes"/>
      <point x="470" y="323" type="line" smooth="yes"/>
      <point x="470" y="499"/>
      <point x="430" y="575"/>
      <point x="283" y="609" type="curve"/>
      <point x="427" y="650"/>
      <point x="470" y="732"/>
      <point x="470" y="903" type="curve" smooth="yes"/>
      <point x="470" y="1153" type="line" smooth="yes"/>
      <point x="470" y="1360"/>
      <point x="511" y="1419"/>
      <point x="661" y="1420" type="curve"/>
      <point x="661" y="1504" type="line"/>
      <point x="434" y="1502"/>
      <point x="369" y="1397"/>
      <point x="369" y="1175" type="curve" smooth="yes"/>
      <point x="369" y="993" type="line" smooth="yes"/>
      <point x="369" y="791"/>
      <point x="359" y="657"/>
      <point x="161" y="658" type="curve"/>
      <point x="161" y="567" type="line"/>
      <point x="365" y="565"/>
      <point x="369" y="436"/>
      <point x="369" y="231" type="curve" smooth="yes"/>
      <point x="369" y="88" type="line" smooth="yes"/>
      <point x="369" y="-158"/>
      <point x="414" y="-274"/>
    </contour>
  </outline>
</glyph>
<glyph name="braceright" format="1">
  <advance width="837"/>
  <unicode hex="007D"/>
  <outline>
    <contour>
      <point x="129" y="-274" type="line"/>
      <point x="355" y="-273"/>
      <point x="420" y="-168"/>
      <point x="420" y="54" type="curve" smooth="yes"/>
      <point x="420" y="237" type="line" smooth="yes"/>
      <point x="420" y="439"/>
      <point x="429" y="572"/>
      <point x="629" y="572" type="curve"/>
      <point x="629" y="662" type="line"/>
      <point x="426" y="664"/>
      <point x="420" y="793"/>
      <point x="420" y="998" type="curve" smooth="yes"/>
      <point x="420" y="1141" type="line" smooth="yes"/>
      <point x="420" y="1386"/>
      <point x="376" y="1504"/>
      <point x="129" y="1504" type="curve"/>
      <point x="129" y="1423" type="line"/>
      <point x="281" y="1422"/>
      <point x="319" y="1355"/>
      <point x="319" y="1153" type="curve" smooth="yes"/>
      <point x="319" y="905" type="line" smooth="yes"/>
      <point x="319" y="772"/>
      <point x="360" y="654"/>
      <point x="507" y="621" type="curve"/>
      <point x="353" y="565"/>
      <point x="319" y="467"/>
      <point x="319" y="325" type="curve" smooth="yes"/>
      <point x="319" y="77" type="line" smooth="yes"/>
      <point x="319" y="-131"/>
      <point x="279" y="-190"/>
      <point x="129" y="-191" type="curve"/>
    </contour>
  </outline>
</glyph>
<glyph name="logicalnot" format="1">
  <advance width="1232"/>
  <unicode hex="00AC"/>
  <outline>
    <contour>
      <point x="109" y="788" type="line"/>
      <point x="109" y="695" type="line"/>
      <point x="974" y="695" type="line"/>
      <point x="974" y="259" type="line"/>
      <point x="1061" y="259" type="line"/>
      <point x="1061" y="788" type="line"/>
    </contour>
  </outline>
</glyph>
<glyph name="plusminus" format="1">
  <advance width="1157"/>
  <unicode hex="00B1"/>
  <outline>
    <contour>
      <point x="521" y="1072" type="line"/>
      <point x="521" y="674" type="line"/>
      <point x="140" y="674" type="line"/>
      <point x="140" y="597" type="line"/>
      <point x="521" y="597" type="line"/>
      <point x="521" y="189" type="line"/>
      <point x="613" y="189" type="line"/>
      <point x="613" y="597" type="line"/>
      <point x="984" y="597" type="line"/>
      <point x="984" y="674" type="line"/>
      <point x="612" y="674" type="line"/>
      <point x="612" y="1072" type="line"/>
    </contour>
    <contour>
      <point x="110" y="86" type="line"/>
      <point x="110" y="0" type="line"/>
      <point x="1048" y="0" type="line"/>
      <point x="1048" y="86" type="line"/>
    </contour>
  </outline>
</glyph>
<glyph name="multiply" format="1">
  <advance width="780"/>
  <unicode hex="00D7"/>
  <outline>
    <contour>
      <point x="65" y="905" type="line"/>
      <point x="332" y="614" type="line"/>
      <point x="51" y="310" type="line"/>
      <point x="113" y="251" type="line"/>
      <point x="391" y="549" type="line"/>
      <point x="666" y="251" type="line"/>
      <point x="723" y="314" type="line"/>
      <point x="723" y="314"/>
      <point x="452" y="613"/>
      <point x="451" y="614" type="curve"/>
      <point x="719" y="899" type="line"/>
      <point x="653" y="964" type="line"/>
      <point x="391" y="679" type="line"/>
      <point x="127" y="970" type="line"/>
    </contour>
  </outline>
</glyph>
<glyph name="ae" format="1">
  <advance width="1750"/>
  <unicode hex="00E6"/>
  <outline>
    <contour>
      <point x="913" y="1064" type="move" name="top"/>
    </contour>
    <contour>
      <point x="1278" y="-19" type="curve" smooth="yes"/>
      <point x="1427" y="-19"/>
      <point x="1538" y="20"/>
      <point x="1637" y="76" type="curve"/>
      <point x="1598" y="158" type="line"/>
      <point x="1480" y="99"/>
      <point x="1406" y="75"/>
      <point x="1296" y="75" type="curve" smooth="yes"/>
      <point x="1084" y="75"/>
      <point x="927" y="194"/>
      <point x="915" y="512" type="curve"/>
      <point x="1409" y="501"/>
      <point x="1638" y="513"/>
      <point x="1634" y="797" type="curve" smooth="yes"/>
      <point x="1632" y="951"/>
      <point x="1499" y="1082"/>
      <point x="1265" y="1082" type="curve" smooth="yes"/>
      <point x="1102" y="1082"/>
      <point x="934" y="999"/>
      <point x="884" y="817" type="curve"/>
      <point x="863" y="1012"/>
      <point x="719" y="1083"/>
      <point x="525" y="1083" type="curve" smooth="yes"/>
      <point x="388" y="1083"/>
      <point x="251" y="1042"/>
      <point x="150" y="980" type="curve"/>
      <point x="198" y="896" type="line"/>
      <point x="309" y="964"/>
      <point x="443" y="990"/>
      <point x="548" y="990" type="curve" smooth="yes"/>
      <point x="729" y="990"/>
      <point x="802" y="900"/>
      <point x="802" y="721" type="curve" smooth="yes"/>
      <point x="802" y="602" type="line"/>
      <point x="766" y="606"/>
      <point x="591" y="608"/>
      <point x="570" y="608" type="curve" smooth="yes"/>
      <point x="226" y="608"/>
      <point x="105" y="491"/>
      <point x="105" y="293" type="curve" smooth="yes"/>
      <point x="105" y="73"/>
      <point x="250" y="-12"/>
      <point x="427" y="-16" type="curve"/>
      <point x="597" y="-16"/>
      <point x="798" y="59"/>
      <point x="886" y="198" type="curve"/>
      <point x="963" y="57"/>
      <point x="1104" y="-19"/>
    </contour>
    <contour>
      <point x="455" y="83" type="curve" smooth="yes"/>
      <point x="335" y="83"/>
      <point x="226" y="142"/>
      <point x="226" y="303" type="curve" smooth="yes"/>
      <point x="226" y="446"/>
      <point x="293" y="524"/>
      <point x="595" y="524" type="curve" smooth="yes"/>
      <point x="614" y="524"/>
      <point x="767" y="522"/>
      <point x="801" y="518" type="curve"/>
      <point x="800" y="467"/>
      <point x="807" y="354"/>
      <point x="828" y="303" type="curve" smooth="yes"/>
      <point x="771" y="167"/>
      <point x="610" y="83"/>
    </contour>
    <contour>
      <point x="918" y="596" type="curve"/>
      <point x="938" y="829"/>
      <point x="1053" y="986"/>
      <point x="1267" y="986" type="curve" smooth="yes"/>
      <point x="1438" y="986"/>
      <point x="1523" y="888"/>
      <point x="1525" y="790" type="curve" smooth="yes"/>
      <point x="1528" y="642"/>
      <point x="1407" y="577"/>
    </contour>
  </outline>
</glyph>
<glyph name="oslash" format="1">
  <advance width="1224"/>
  <unicode hex="00F8"/>
  <outline>
    <contour>
      <point x="176" y="-122" type="line"/>
      <point x="237" y="-156" type="line"/>
      <point x="966" y="1195" type="line"/>
      <point x="899" y="1227" type="line"/>
    </contour>
    <component base="o" xOffset="-40"/>
  </outline>
</glyph>
<glyph name="Hbar" format="1">
  <advance width="1483"/>
  <unicode hex="0126"/>
  <outline>
    <contour>
      <point x="90" y="1195" type="line"/>
      <point x="90" y="1114" type="line"/>
      <point x="1386" y="1114" type="line"/>
      <point x="1386" y="1195" type="line"/>
    </contour>
    <component base="H"/>
  </outline>
</glyph>
<glyph name="kgreenlandic" format="1">
  <advance width="1065"/>
  <unicode hex="0138"/>
  <outline>
    <contour>
      <point x="175" y="0" type="line"/>
      <point x="297" y="0" type="line"/>
      <point x="297" y="437" type="line"/>
      <point x="267" y="376" type="line"/>
      <point x="461" y="546" type="line"/>
      <point x="406" y="550" type="line"/>
      <point x="892" y="0" type="line"/>
      <point x="1022" y="0" type="line"/>
      <point x="1022" y="17" type="line"/>
      <point x="485" y="611" type="line"/>
      <point x="483" y="558" type="line"/>
      <point x="1005" y="1064" type="line"/>
      <point x="1005" y="1082" type="line"/>
      <point x="877" y="1082" type="line"/>
      <point x="257" y="480" type="line"/>
      <point x="290" y="475" type="line"/>
      <point x="297" y="722" type="line"/>
      <point x="297" y="1082" type="line"/>
      <point x="175" y="1082" type="line"/>
    </contour>
  </outline>
</glyph>
<glyph name="eng" format="1">
  <advance width="1177"/>
  <unicode hex="014B"/>
  <outline>
    <contour>
      <point x="889" y="222" type="line"/>
      <point x="889" y="-3" type="line"/>
      <point x="889" y="-239"/>
      <point x="849" y="-314"/>
      <point x="497" y="-314" type="curve"/>
      <point x="505" y="-407" type="line"/>
      <point x="930" y="-407"/>
      <point x="1010" y="-288"/>
      <point x="1010" y="-16" type="curve"/>
      <point x="1010" y="222" type="line"/>
    </contour>
    <component base="n"/>
  </outline>
</glyph>
<glyph name="oe" format="1">
  <advance width="1963"/>
  <unicode hex="0153"/>
  <outline>
    <contour>
      <point x="1779" y="164" type="line"/>
      <point x="1663" y="105"/>
      <point x="1591" y="75"/>
      <point x="1465" y="75" type="curve" smooth="yes"/>
      <point x="1265" y="75"/>
      <point x="1082" y="198"/>
      <point x="1082" y="523" type="curve"/>
      <point x="1842" y="523" type="line"/>
      <point x="1842" y="523"/>
      <point x="1848" y="563"/>
      <point x="1848" y="594" type="curve" smooth="yes"/>
      <point x="1852" y="897"/>
      <point x="1703" y="1084"/>
      <point x="1448" y="1084" type="curve" smooth="yes"/>
      <point x="1273" y="1085"/>
      <point x="1090" y="973"/>
      <point x="1027" y="767" type="curve"/>
      <point x="976" y="965"/>
      <point x="813" y="1084"/>
      <point x="601" y="1084" type="curve" smooth="yes"/>
      <point x="294" y="1084"/>
      <point x="120" y="853"/>
      <point x="120" y="529" type="curve" smooth="yes"/>
      <point x="120" y="213"/>
      <point x="294" y="-19"/>
      <point x="601" y="-19" type="curve" smooth="yes"/>
      <point x="796" y="-19"/>
      <point x="964" y="99"/>
      <point x="1023" y="293" type="curve"/>
      <point x="1084" y="90"/>
      <point x="1261" y="-19"/>
      <point x="1456" y="-19" type="curve" smooth="yes"/>
      <point x="1625" y="-19"/>
      <point x="1725" y="28"/>
      <point x="1822" y="85" type="curve"/>
      <point x="1791" y="164" type="line"/>
    </contour>
    <contour>
      <point x="601" y="72" type="curve" smooth="yes"/>
      <point x="354" y="72"/>
      <point x="242" y="280"/>
      <point x="242" y="528" type="curve" smooth="yes"/>
      <point x="242" y="785"/>
      <point x="354" y="993"/>
      <point x="601" y="993" type="curve" smooth="yes"/>
      <point x="853" y="993"/>
      <point x="960" y="784"/>
      <point x="960" y="527" type="curve" smooth="yes"/>
      <point x="960" y="281"/>
      <point x="855" y="72"/>
    </contour>
    <contour>
      <point x="1086" y="604" type="line"/>
      <point x="1108" y="832"/>
      <point x="1245" y="993"/>
      <point x="1458" y="991" type="curve" smooth="yes"/>
      <point x="1656" y="990"/>
      <point x="1743" y="852"/>
      <point x="1748" y="604" type="curve"/>
    </contour>
  </outline>
</glyph>
<glyph name="apostrophemod" format="1">
  <advance width="642"/>
  <unicode hex="02BC"/>
  <outline>
    <contour>
      <point x="146" y="1190" type="curve"/>
      <point x="243" y="1190" type="line"/>
      <point x="243" y="1190"/>
      <point x="434" y="1576"/>
      <point x="440" y="1608" type="curve"/>
      <point x="320" y="1608" type="line"/>
      <point x="319" y="1592"/>
      <point x="146" y="1190"/>
    </contour>
  </outline>
</glyph>
<glyph name="caron" format="1">
  <advance width="864"/>
  <unicode hex="02C7"/>
  <outline>
    <contour>
      <point x="430" y="1082" type="move" name="_top"/>
    </contour>
    <contour>
      <point x="354" y="1219" type="line"/>
      <point x="482" y="1219" type="line"/>
      <point x="670" y="1538" type="line"/>
      <point x="579" y="1538" type="line"/>
      <point x="419" y="1298" type="line"/>
      <point x="257" y="1538" type="line"/>
      <point x="166" y="1538" type="line"/>
    </contour>
  </outline>
</glyph>
<glyph name="breve" format="1">
  <advance width="837"/>
  <unicode hex="02D8"/>
  <outline>
    <contour>
      <point x="415" y="1057" type="move" name="_top"/>
    </contour>
    <contour>
      <point x="410" y="1269" type="curve" smooth="yes"/>
      <point x="523" y="1269"/>
      <point x="627" y="1334"/>
      <point x="627" y="1495" type="curve"/>
      <point x="555" y="1495" type="line"/>
      <point x="555" y="1385"/>
      <point x="472" y="1341"/>
      <point x="410" y="1341" type="curve" smooth="yes"/>
      <point x="348" y="1341"/>
      <point x="272" y="1385"/>
      <point x="272" y="1495" type="curve"/>
      <point x="198" y="1495" type="line"/>
      <point x="198" y="1333"/>
      <point x="297" y="1269"/>
    </contour>
  </outline>
</glyph>
<glyph name="dotaccent" format="1">
  <advance width="413"/>
  <unicode hex="02D9"/>
  <outline>
    <contour>
      <point x="214" y="1082" type="move" name="_top"/>
    </contour>
    <contour>
      <point x="295" y="1392" type="curve" smooth="yes"/>
      <point x="295" y="1446"/>
      <point x="271" y="1476"/>
      <point x="215" y="1476" type="curve" smooth="yes"/>
      <point x="158" y="1476"/>
      <point x="135" y="1446"/>
      <point x="135" y="1392" type="curve" smooth="yes"/>
      <point x="135" y="1336"/>
      <point x="158" y="1306"/>
      <point x="215" y="1306" type="curve" smooth="yes"/>
      <point x="271" y="1306"/>
      <point x="295" y="1336"/>
    </contour>
  </outline>
</glyph>
<glyph name="ring" format="1">
  <advance width="651"/>
  <unicode hex="02DA"/>
  <outline>
    <contour>
      <point x="321" y="1057" type="move" name="_top"/>
    </contour>
    <contour>
      <point x="322" y="1387" type="curve" smooth="yes"/>
      <point x="266" y="1387"/>
      <point x="223" y="1433"/>
      <point x="223" y="1488" type="curve" smooth="yes"/>
      <point x="223" y="1544"/>
      <point x="266" y="1588"/>
      <point x="322" y="1588" type="curve" smooth="yes"/>
      <point x="377" y="1588"/>
      <point x="423" y="1544"/>
      <point x="423" y="1488" type="curve" smooth="yes"/>
      <point x="423" y="1433"/>
      <point x="377" y="1387"/>
    </contour>
    <contour>
      <point x="322" y="1323" type="curve" smooth="yes"/>
      <point x="417" y="1323"/>
      <point x="494" y="1394"/>
      <point x="494" y="1490" type="curve" smooth="yes"/>
      <point x="494" y="1585"/>
      <point x="417" y="1656"/>
      <point x="322" y="1656" type="curve" smooth="yes"/>
      <point x="226" y="1656"/>
      <point x="150" y="1585"/>
      <point x="150" y="1490" type="curve" smooth="yes"/>
      <point x="150" y="1394"/>
      <point x="226" y="1323"/>
    </contour>
  </outline>
</glyph>
<glyph name="commaaccent" format="1">
  <advance width="604"/>
  <unicode hex="0326"/>
  <outline>
    <contour>
      <point x="319" y="0" type="move" name="_bot"/>
    </contour>
    <contour>
      <point x="233" y="-508" type="curve"/>
      <point x="299" y="-508" type="line"/>
      <point x="299" y="-508"/>
      <point x="374" y="-214"/>
      <point x="372" y="-150" type="curve"/>
      <point x="258" y="-150" type="line"/>
      <point x="258" y="-255"/>
      <point x="233" y="-508"/>
    </contour>
  </outline>
</glyph>
<glyph name="endash" format="1">
  <advance width="1329"/>
  <unicode hex="2013"/>
  <outline>
    <contour>
      <point x="116" y="560" type="line"/>
      <point x="1185" y="560" type="line"/>
      <point x="1185" y="663" type="line"/>
      <point x="116" y="663" type="line"/>
    </contour>
  </outline>
</glyph>
<glyph name="emdash" format="1">
  <advance width="1852"/>
  <unicode hex="2014"/>
  <outline>
    <contour>
      <point x="-163" y="556" type="line"/>
      <point x="1968" y="556" type="line"/>
      <point x="1968" y="665" type="line"/>
      <point x="-163" y="665" type="line"/>
    </contour>
  </outline>
</glyph>
<glyph name="quoteleft" format="1">
  <advance width="570"/>
  <unicode hex="2018"/>
  <outline>
    <contour>
      <point x="314" y="1000" type="line"/>
      <point x="367" y="1457" type="line"/>
      <point x="305" y="1457" type="line"/>
      <point x="198" y="1000" type="line"/>
    </contour>
  </outline>
</glyph>
<glyph name="quotesinglbase" format="1">
  <advance width="501"/>
  <unicode hex="201A"/>
  <outline>
    <contour>
      <point x="124" y="-301" type="line"/>
      <point x="199" y="-301" type="line"/>
      <point x="329" y="168" type="line"/>
      <point x="204" y="168" type="line"/>
    </contour>
  </outline>
</glyph>
<glyph name="quotedblleft" format="1">
  <advance width="881"/>
  <unicode hex="201C"/>
  <outline>
    <contour>
      <point x="184" y="997" type="line"/>
      <point x="320" y="997" type="line"/>
      <point x="394" y="1476" type="line"/>
      <point x="315" y="1476" type="line"/>
    </contour>
    <contour>
      <point x="481" y="997" type="line"/>
      <point x="617" y="997" type="line"/>
      <point x="691" y="1476" type="line"/>
      <point x="612" y="1476" type="line"/>
    </contour>
  </outline>
</glyph>
<glyph name="quotedblright" format="1">
  <advance width="694"/>
  <unicode hex="201D"/>
  <outline>
    <contour>
      <point x="116" y="1078" type="line"/>
      <point x="186" y="1078" type="line"/>
      <point x="328" y="1550" type="line"/>
      <point x="201" y="1550" type="line"/>
    </contour>
    <contour>
      <point x="403" y="1081" type="line"/>
      <point x="479" y="1081" type="line"/>
      <point x="616" y="1550" type="line"/>
      <point x="491" y="1550" type="line"/>
    </contour>
  </outline>
</glyph>
<glyph name="quotedblbase" format="1">
  <advance width="670"/>
  <unicode hex="201E"/>
  <outline>
    <contour>
      <point x="125" y="-251" type="line"/>
      <point x="187" y="-251" type="line"/>
      <point x="289" y="193" type="line"/>
      <point x="197" y="193" type="line"/>
    </contour>
    <contour>
      <point x="360" y="-251" type="line"/>
      <point x="418" y="-251" type="line"/>
      <point x="527" y="193" type="line"/>
      <point x="428" y="193" type="line"/>
    </contour>
  </outline>
</glyph>
<glyph name="foursuperior" format="1">
  <advance width="829"/>
  <unicode hex="2074"/>
  <outline>
    <contour>
      <point x="527" y="634" type="line"/>
      <point x="627" y="634" type="line"/>
      <point x="626" y="849" type="line"/>
      <point x="754" y="849" type="line"/>
      <point x="749" y="927" type="line"/>
      <point x="628" y="927" type="line"/>
      <point x="628" y="1492" type="line"/>
      <point x="520" y="1492" type="line"/>
      <point x="149" y="924" type="line"/>
      <point x="149" y="849" type="line"/>
      <point x="527" y="849" type="line"/>
    </contour>
    <contour>
      <point x="251" y="927" type="line"/>
      <point x="528" y="1365" type="line"/>
      <point x="527" y="927" type="line"/>
    </contour>
  </outline>
</glyph>
<glyph name="Euro" format="1">
  <advance width="1353"/>
  <unicode hex="20AC"/>
  <outline>
    <contour>
      <point x="-15" y="541" type="line"/>
      <point x="881" y="541" type="line"/>
      <point x="892" y="635" type="line"/>
      <point x="215" y="635" type="line"/>
      <point x="216" y="836" type="line"/>
      <point x="892" y="836" type="line"/>
      <point x="903" y="928" type="line"/>
      <point x="4" y="928" type="line"/>
      <point x="-6" y="836" type="line"/>
      <point x="154" y="836" type="line"/>
      <point x="153" y="635" type="line"/>
      <point x="-4" y="635" type="line"/>
    </contour>
    <component base="C" xOffset="-31"/>
  </outline>
</glyph>
<glyph name="uni2113" format="1">
  <advance width="1135"/>
  <unicode hex="2113"/>
  <outline>
    <contour>
      <point x="906" y="1589" type="curve" smooth="yes"/>
      <point x="1016" y="1589"/>
      <point x="1060" y="1517"/>
      <point x="1059" y="1410" type="curve" smooth="yes"/>
      <point x="1059" y="1278"/>
      <point x="1002" y="1119"/>
      <point x="780" y="928" type="curve" smooth="yes"/>
      <point x="519" y="702" type="line"/>
      <point x="532" y="675" type="line"/>
      <point x="711" y="1401" type="line" smooth="yes"/>
      <point x="745" y="1536"/>
      <point x="816" y="1589"/>
    </contour>
    <contour>
      <point x="1145" y="1411" type="curve" smooth="yes"/>
      <point x="1145" y="1601"/>
      <point x="1023" y="1676"/>
      <point x="896" y="1677" type="curve" smooth="yes"/>
      <point x="780" y="1677"/>
      <point x="660" y="1628"/>
      <point x="597" y="1396" type="curve" smooth="yes"/>
      <point x="377" y="585" type="line"/>
      <point x="421" y="648" type="line"/>
      <point x="87" y="391" type="line"/>
      <point x="125" y="334" type="line"/>
      <point x="394" y="540" type="line"/>
      <point x="370" y="546" type="line"/>
      <point x="244" y="155"/>
      <point x="337" y="-12"/>
      <point x="511" y="-20" type="curve" smooth="yes"/>
      <point x="727" y="-30"/>
      <point x="873" y="98"/>
      <point x="873" y="98" type="curve"/>
      <point x="852" y="174" type="line"/>
      <point x="742" y="107"/>
      <point x="652" y="71"/>
      <point x="562" y="77" type="curve" smooth="yes"/>
      <point x="430" y="86"/>
      <point x="417" y="205"/>
      <point x="470" y="417" type="curve" smooth="yes"/>
      <point x="528" y="655" type="line"/>
      <point x="480" y="576" type="line"/>
      <point x="816" y="865" type="line" smooth="yes"/>
      <point x="1053" y="1069"/>
      <point x="1145" y="1201"/>
    </contour>
  </outline>
</glyph>
<glyph name="trademark" format="1">
  <advance width="2020"/>
  <unicode hex="2122"/>
  <outline>
    <contour>
      <point x="924" y="516" type="line"/>
      <point x="994" y="516" type="line"/>
      <point x="1002" y="1373" type="line"/>
      <point x="1346" y="622" type="line"/>
      <point x="1412" y="622" type="line"/>
      <point x="1739" y="1368" type="line"/>
      <point x="1747" y="516" type="line"/>
      <point x="1820" y="516" type="line"/>
      <point x="1807" y="1469" type="line"/>
      <point x="1716" y="1469" type="line"/>
      <point x="1380" y="703" type="line"/>
      <point x="1026" y="1469" type="line"/>
      <point x="937" y="1469" type="line"/>
    </contour>
    <contour>
      <point x="380" y="516" type="line"/>
      <point x="459" y="516" type="line"/>
      <point x="459" y="1406" type="line"/>
      <point x="756" y="1406" type="line"/>
      <point x="756" y="1469" type="line"/>
      <point x="94" y="1469" type="line"/>
      <point x="94" y="1406" type="line"/>
      <point x="380" y="1406" type="line"/>
    </contour>
  </outline>
</glyph>
<glyph name="infinity" format="1">
  <advance width="1700"/>
  <unicode hex="221E"/>
  <outline>
    <contour>
      <point x="848" y="707" type="curve"/>
      <point x="704" y="899"/>
      <point x="585" y="993"/>
      <point x="440" y="993" type="curve" smooth="yes"/>
      <point x="239" y="993"/>
      <point x="95" y="848"/>
      <point x="95" y="646" type="curve" smooth="yes"/>
      <point x="95" y="424"/>
      <point x="230" y="260"/>
      <point x="444" y="260" type="curve" smooth="yes"/>
      <point x="592" y="260"/>
      <point x="712" y="354"/>
      <point x="853" y="541" type="curve"/>
      <point x="999" y="344"/>
      <point x="1115" y="260"/>
      <point x="1253" y="260" type="curve" smooth="yes"/>
      <point x="1455" y="260"/>
      <point x="1599" y="409"/>
      <point x="1599" y="629" type="curve" smooth="yes"/>
      <point x="1599" y="844"/>
      <point x="1467" y="993"/>
      <point x="1255" y="993" type="curve" smooth="yes"/>
      <point x="1104" y="993"/>
      <point x="985" y="897"/>
    </contour>
    <contour>
      <point x="802" y="618" type="curve"/>
      <point x="688" y="445"/>
      <point x="579" y="352"/>
      <point x="446" y="352" type="curve" smooth="yes"/>
      <point x="290" y="352"/>
      <point x="185" y="471"/>
      <point x="185" y="626" type="curve" smooth="yes"/>
      <point x="185" y="782"/>
      <point x="285" y="897"/>
      <point x="439" y="897" type="curve" smooth="yes"/>
      <point x="580" y="897"/>
      <point x="689" y="802"/>
    </contour>
    <contour>
      <point x="1499" y="651" type="curve" smooth="yes"/>
      <point x="1499" y="476"/>
      <point x="1408" y="352"/>
      <point x="1255" y="352" type="curve" smooth="yes"/>
      <point x="1138" y="352"/>
      <point x="1038" y="438"/>
      <point x="898" y="634" type="curve"/>
      <point x="1008" y="801"/>
      <point x="1114" y="897"/>
      <point x="1251" y="897" type="curve" smooth="yes"/>
      <point x="1398" y="897"/>
      <point x="1499" y="793"/>
    </contour>
  </outline>
</glyph>
<glyph name="onesuperior" format="1">
  <advance width="863"/>
  <outline>
    <contour>
      <point x="246" y="646" type="line"/>
      <point x="704" y="646" type="line"/>
      <point x="704" y="726" type="line"/>
      <point x="533" y="726" type="line"/>
      <point x="533" y="1490" type="line"/>
      <point x="447" y="1490" type="line"/>
      <point x="402" y="1445"/>
      <point x="293" y="1403"/>
      <point x="243" y="1390" type="curve"/>
      <point x="243" y="1308" type="line"/>
      <point x="297" y="1322"/>
      <point x="393" y="1356"/>
      <point x="430" y="1382" type="curve"/>
      <point x="430" y="726" type="line"/>
      <point x="246" y="726" type="line"/>
    </contour>
  </outline>
</glyph>
<glyph name="threesuperior" format="1">
  <advance width="851"/>
  <outline>
    <contour>
      <point x="423" y="642" type="curve" smooth="yes"/>
      <point x="558" y="642"/>
      <point x="681" y="719"/>
      <point x="681" y="880" type="curve" smooth="yes"/>
      <point x="681" y="990"/>
      <point x="610" y="1061"/>
      <point x="515" y="1088" type="curve"/>
      <point x="610" y="1112"/>
      <point x="670" y="1191"/>
      <point x="670" y="1288" type="curve" smooth="yes"/>
      <point x="670" y="1436"/>
      <point x="552" y="1502"/>
      <point x="422" y="1502" type="curve" smooth="yes"/>
      <point x="325" y="1502"/>
      <point x="233" y="1469"/>
      <point x="177" y="1410" type="curve"/>
      <point x="221" y="1346" type="line"/>
      <point x="273" y="1391"/>
      <point x="336" y="1420"/>
      <point x="422" y="1420" type="curve" smooth="yes"/>
      <point x="513" y="1420"/>
      <point x="579" y="1375"/>
      <point x="579" y="1281" type="curve" smooth="yes"/>
      <point x="579" y="1187"/>
      <point x="507" y="1123"/>
      <point x="400" y="1123" type="curve" smooth="yes"/>
      <point x="299" y="1123" type="line"/>
      <point x="299" y="1044" type="line"/>
      <point x="401" y="1044" type="line" smooth="yes"/>
      <point x="517" y="1044"/>
      <point x="589" y="981"/>
      <point x="589" y="877" type="curve" smooth="yes"/>
      <point x="589" y="775"/>
      <point x="518" y="724"/>
      <point x="424" y="724" type="curve" smooth="yes"/>
      <point x="337" y="724"/>
      <point x="269" y="753"/>
      <point x="220" y="797" type="curve"/>
      <point x="178" y="731" type="line"/>
      <point x="234" y="673"/>
      <point x="327" y="642"/>
    </contour>
  </outline>
</glyph>
<glyph name="twosuperior" format="1">
  <advance width="779"/>
  <outline>
    <contour>
      <point x="154" y="660" type="line"/>
      <point x="648" y="660" type="line"/>
      <point x="650" y="740" type="line"/>
      <point x="276" y="740" type="line"/>
      <point x="329" y="796"/>
      <point x="440" y="905"/>
      <point x="474" y="941" type="curve" smooth="yes"/>
      <point x="593" y="1059"/>
      <point x="654" y="1129"/>
      <point x="654" y="1257" type="curve" smooth="yes"/>
      <point x="654" y="1419"/>
      <point x="531" y="1503"/>
      <point x="384" y="1503" type="curve" smooth="yes"/>
      <point x="258" y="1503"/>
      <point x="152" y="1449"/>
      <point x="89" y="1359" type="curve"/>
      <point x="145" y="1301" type="line"/>
      <point x="207" y="1378"/>
      <point x="284" y="1419"/>
      <point x="389" y="1419" type="curve" smooth="yes"/>
      <point x="492" y="1419"/>
      <point x="559" y="1356"/>
      <point x="559" y="1253" type="curve" smooth="yes"/>
      <point x="559" y="1177"/>
      <point x="523" y="1114"/>
      <point x="409" y="995" type="curve" smooth="yes"/>
      <point x="373" y="955"/>
      <point x="223" y="806"/>
      <point x="154" y="740" type="curve"/>
    </contour>
  </outline>
</glyph>
